<svg xmlns="http://www.w3.org/2000/svg" version="1.1" xmlns:xlink="http://www.w3.org/1999/xlink" xmlns:svgjs="http://svgjs.dev/svgjs" width="1000" height="166" viewBox="0 0 1000 166"><g transform="matrix(1,0,0,1,-0.6060595622703318,-0.3256998798295285)"><svg viewBox="0 0 396 66" data-background-color="#17133f" preserveAspectRatio="xMidYMid meet" height="166" width="1000" xmlns="http://www.w3.org/2000/svg" xmlns:xlink="http://www.w3.org/1999/xlink"><g id="tight-bounds" transform="matrix(1,0,0,1,0.23999958665905297,0.12949513294427106)"><svg viewBox="0 0 395.52 65.74100973411143" height="65.74100973411143" width="395.52"><g><svg viewBox="0 0 473.93484201454817 78.7746638911129" height="65.74100973411143" width="395.52"><g><rect width="5.1403621455526025" height="57.285482786228975" x="408.97644540720574" y="10.74459055244196" fill="#ff4057" opacity="1" stroke-width="0" stroke="transparent" fill-opacity="1" class="rect-o-0" data-fill-palette-color="primary" rx="1%" id="o-0" data-palette-color="#ff4057"></rect></g><g transform="matrix(1,0,0,1,0,10.887091753402725)"><svg viewBox="0 0 395.52 57.000480384307444" height="57.000480384307444" width="395.52"><g><svg viewBox="0 0 395.52 57.000480384307444" height="57.000480384307444" width="395.52"><g><svg viewBox="0 0 395.52 57.000480384307444" height="57.000480384307444" width="395.52"><g transform="matrix(1,0,0,1,0,0)"><svg width="395.52" viewBox="4.449999809265137 -35.75 247.6400146484375 36" height="57.000480384307444" data-palette-color="#ff4057"><g class="undefined-text-0" data-fill-palette-color="primary" id="text-0"><path d="M7.95 0L4.45 0 4.45-35.5 7.95-35.5 7.95 0ZM31.1 0.25L31.1 0.25Q27.55 0.25 24.5-1.28 21.45-2.8 19.2-5.4 16.95-8 15.72-11.2 14.5-14.4 14.5-17.8L14.5-17.8Q14.5-21.4 15.72-24.63 16.95-27.85 19.15-30.35 21.35-32.85 24.35-34.3 27.35-35.75 30.9-35.75L30.9-35.75Q36.15-35.75 39.45-33.6 42.75-31.45 44.45-28L44.45-28 41.75-26.2Q40.05-29.5 37.2-31.05 34.35-32.6 30.85-32.6L30.85-32.6Q27.9-32.6 25.52-31.35 23.15-30.1 21.45-28 19.75-25.9 18.87-23.25 18-20.6 18-17.75L18-17.75Q18-14.75 19-12.08 20-9.4 21.85-7.33 23.7-5.25 26.12-4.08 28.55-2.9 31.35-2.9L31.35-2.9Q34.6-2.9 37.5-4.53 40.4-6.15 43.05-9.55L43.05-9.55 43.05-5.85Q38 0.25 31.1 0.25ZM42.5 0L42.5-14.75 34.6-14.75 34.6-17.45 45.45-17.45 45.45 0 42.5 0ZM79.1 0L56.15-29.05 56.15 0 52.65 0 52.65-35.5 55.55-35.5 78.85-5.9 78.85-35.45 82.34-35.45 82.34 0 79.1 0ZM94.74 0L91.24 0 91.24-35.5 94.74-35.5 94.74 0ZM128.84-35.5L128.84-32.4 116.19-32.4 116.19 0 112.69 0 112.69-32.4 100.04-32.4 100.04-35.5 128.84-35.5ZM137.64-3.1L157.99-3.1 157.99 0 134.14 0 134.14-35.5 157.54-35.5 157.54-32.4 137.64-32.4 137.64-19.6 154.99-19.6 154.99-16.65 137.64-16.65 137.64-3.1Z" fill="#ff4057" data-fill-palette-color="primary"></path><path d="M186.44 0L162.44 0 162.44-35.5 165.94-35.5 165.94-3.1 186.44-3.1 186.44 0ZM187.74 0L202.59-35.5 205.54-35.5 220.29 0 216.59 0 211.99-11.1 196.04-11.1 191.49 0 187.74 0ZM196.79-13.85L211.19-13.85 204.04-31.4 196.79-13.85ZM252.09-9.15L252.09-9.15Q252.09-6.5 250.74-4.42 249.39-2.35 247.11-1.18 244.84 0 242.14 0L242.14 0 225.39 0 225.39-35.5 242.49-35.5Q244.99-35.5 246.81-34.18 248.64-32.85 249.61-30.78 250.59-28.7 250.59-26.45L250.59-26.45Q250.59-23.8 249.24-21.55 247.89-19.3 245.49-18.2L245.49-18.2Q248.54-17.3 250.31-14.85 252.09-12.4 252.09-9.15ZM248.59-9.75L248.59-9.75Q248.59-11.55 247.79-13.08 246.99-14.6 245.61-15.55 244.24-16.5 242.49-16.5L242.49-16.5 228.89-16.5 228.89-3.05 242.14-3.05Q243.94-3.05 245.39-4 246.84-4.95 247.71-6.48 248.59-8 248.59-9.75ZM241.39-32.45L228.89-32.45 228.89-19.35 241.09-19.35Q242.84-19.35 244.19-20.28 245.54-21.2 246.34-22.7 247.14-24.2 247.14-25.9L247.14-25.9Q247.14-27.7 246.39-29.18 245.64-30.65 244.34-31.55 243.04-32.45 241.39-32.45L241.39-32.45Z" fill="#dcdcdc" data-fill-palette-color="secondary"></path></g></svg></g></svg></g></svg></g></svg></g><g transform="matrix(1,0,0,1,427.5732529599641,0)"><svg viewBox="0 0 46.36158905458405 78.7746638911129" height="78.7746638911129" width="46.36158905458405"><g><svg xmlns="http://www.w3.org/2000/svg" xmlns:xlink="http://www.w3.org/1999/xlink" version="1.1" x="0" y="0" viewBox="20.884765625 2.5829999446868896 55.81188201904297 94.83200073242188" enable-background="new 0 0 100 100" xml:space="preserve" height="78.7746638911129" width="46.36158905458405" class="icon-icon-0" data-fill-palette-color="accent" id="icon-0"><path fill="#dcdcdc" d="M35.443 2.583c0 0 14.836 10.48 0 32.011-13.407 19.457-21.41 40.113-6.609 55.539 4.288 4.47 9.373 6.745 14.568 7.282-8.4-2.451-14.658-10.83-7.364-25.817 4.486-9.218 15.658-20.073 11.938-32.859 0 0 10.057 12.669 3.208 31.977-3.111 8.77 10.599 9.728 6.885 0.154-2.246-5.785 10.602 11.497 3.683 21.482 6.529-4.512 10.063-11.938 12.655-19.868C81.76 50 72.084 13.733 35.443 2.583z" data-fill-palette-color="accent"></path></svg></g></svg></g></svg></g><defs></defs></svg><rect width="395.52" height="65.74100973411143" fill="none" stroke="none" visibility="hidden"></rect></g></svg></g></svg>